<?xml version="1.0" encoding="UTF-8" standalone="no"?>
<!DOCTYPE svg PUBLIC "-//W3C//DTD SVG 1.1//EN" "http://www.w3.org/Graphics/SVG/1.1/DTD/svg11.dtd">
<svg width="100%" height="100%" viewBox="0 0 30 50" version="1.1" xmlns="http://www.w3.org/2000/svg" xmlns:xlink="http://www.w3.org/1999/xlink" xml:space="preserve" style="fill-rule:evenodd;clip-rule:evenodd;stroke-linecap:round;stroke-linejoin:round;stroke-miterlimit:1.5;">
    <path d="M15,48.911C15,48.911 1.796,24.678 1.796,14.293C1.796,7.005 7.712,1.089 15,1.089C22.288,1.089 28.204,7.005 28.204,14.293C28.204,24.678 15,48.911 15,48.911ZM15,4.172C20.729,4.172 25.381,9.117 25.381,15.209C25.381,21.301 20.729,26.246 15,26.246C9.271,26.246 4.619,21.301 4.619,15.209C4.619,9.117 9.271,4.172 15,4.172Z" style="fill:url(#_Linear1);stroke:black;stroke-width:0.3px;"/>
    <g transform="matrix(1,0,0,1,-0.522051,0.420508)">
        <ellipse cx="15.522" cy="14.789" rx="10.381" ry="11.037" style="fill:white;fill-opacity:0.411765;"/>
    </g>
    <g transform="matrix(1.66687,0,0,1.66687,-8.92942,-5.15642)">
        <text x="10.735px" y="16.772px" style="font-family:'ArialMT', 'Arial', sans-serif;font-size:12px;fill:rgb(89,89,89);">A</text>
    </g>
    <defs>
        <linearGradient id="_Linear1" x1="0" y1="0" x2="1" y2="0" gradientUnits="userSpaceOnUse" gradientTransform="matrix(26.4081,0,0,47.8229,1.79596,25)"><stop offset="0" style="stop-color:rgb(215,215,215);stop-opacity:1"/><stop offset="1" style="stop-color:rgb(118,118,118);stop-opacity:1"/></linearGradient>
    </defs>
</svg>
